<?xml version="1.0" standalone="no"?>
<!DOCTYPE svg PUBLIC "-//W3C//DTD SVG 20010904//EN"
 "http://www.w3.org/TR/2001/REC-SVG-20010904/DTD/svg10.dtd">
<svg version="1.0" xmlns="http://www.w3.org/2000/svg"
 width="500.000000pt" height="500.000000pt" viewBox="0 0 500.000000 500.000000"
 preserveAspectRatio="xMidYMid meet">

<g transform="translate(0.000000,500.000000) scale(0.100000,-0.100000)"
fill="#000000" stroke="none">
<path d="M2523 3483 c-9 -3 -13 -27 -13 -69 0 -47 -4 -64 -14 -64 -33 0 -157
-73 -183 -108 -49 -64 -58 -90 -58 -172 0 -61 5 -86 24 -124 44 -85 85 -107
332 -180 100 -30 136 -54 144 -99 10 -50 -9 -85 -57 -107 -81 -37 -201 -17
-280 45 -24 19 -47 35 -52 35 -5 0 -36 -17 -68 -37 -67 -44 -72 -62 -29 -114
35 -42 109 -84 182 -102 l54 -14 3 -54 c2 -29 9 -57 15 -61 20 -13 152 -9 165
4 7 7 12 34 12 60 0 30 5 50 13 52 104 30 202 104 230 174 23 58 29 122 17
177 -22 99 -94 160 -244 206 -56 17 -122 37 -148 46 -92 28 -129 78 -104 138
39 92 210 92 295 1 14 -14 29 -26 35 -26 19 0 135 63 140 76 6 17 -47 88 -96
127 -21 16 -59 35 -85 42 l-48 12 -5 59 c-3 32 -9 65 -13 72 -8 12 -137 16
-164 5z"/>
<path d="M1280 3353 c-25 -9 -40 -35 -40 -69 0 -60 13 -64 190 -64 143 0 160
-2 169 -18 5 -10 35 -117 66 -237 31 -121 70 -272 87 -335 16 -63 33 -131 38
-150 5 -19 18 -71 30 -115 12 -44 25 -96 29 -116 4 -19 11 -41 16 -49 5 -8 -3
-22 -23 -40 -40 -34 -72 -109 -72 -165 0 -55 22 -106 67 -155 71 -79 31 -75
735 -75 615 0 627 0 642 20 22 29 19 68 -7 93 l-23 22 -606 0 -605 0 -27 26
c-37 38 -37 100 2 137 l27 26 590 3 c528 3 593 5 620 20 33 18 87 72 103 103
6 11 56 202 111 423 105 423 107 437 62 461 -26 14 -328 15 -336 1 -8 -14 -9
-110 0 -118 3 -4 51 -5 105 -4 54 2 100 0 103 -5 5 -9 -4 -47 -107 -448 -50
-195 -72 -264 -88 -277 -19 -17 -61 -18 -579 -18 -307 0 -559 2 -559 3 0 5
-65 257 -92 357 -11 41 -22 86 -25 100 -3 14 -21 82 -39 153 l-32 127 133 0
c151 0 165 6 165 66 0 73 -2 74 -179 74 l-158 0 -17 73 c-29 123 -43 154 -78
166 -31 11 -369 14 -398 4z"/>
<path d="M2012 1689 c-106 -20 -165 -110 -147 -225 9 -65 83 -139 147 -149
159 -24 278 136 205 275 -12 24 -34 52 -48 62 -39 29 -108 46 -157 37z m91
-141 c23 -27 22 -67 -5 -95 -43 -46 -118 -13 -118 52 0 67 78 94 123 43z"/>
<path d="M3011 1688 c-94 -16 -156 -99 -149 -199 5 -76 37 -121 106 -156 43
-21 61 -24 99 -19 94 13 158 76 169 167 15 133 -91 231 -225 207z m62 -120
c52 -27 61 -75 22 -113 -30 -31 -62 -32 -92 -3 -37 35 -26 99 20 118 29 11 25
12 50 -2z"/>
</g>
</svg>
